<svg width="22" height="22" viewBox="0 0 22 22" fill="none" xmlns="http://www.w3.org/2000/svg">
<path d="M19.25 11.9165V5.49984C19.25 5.01361 19.0568 4.54729 18.713 4.20347C18.3692 3.85966 17.9029 3.6665 17.4167 3.6665H4.58333C4.0971 3.6665 3.63079 3.85966 3.28697 4.20347C2.94315 4.54729 2.75 5.01361 2.75 5.49984V18.3332C2.75 18.8194 2.94315 19.2857 3.28697 19.6295C3.63079 19.9733 4.0971 20.1665 4.58333 20.1665H11.9167" stroke="white" stroke-width="2" stroke-linecap="round" stroke-linejoin="round"/>
<path d="M14.6667 1.8335V5.50016" stroke="white" stroke-width="2" stroke-linecap="round" stroke-linejoin="round"/>
<path d="M7.33333 1.8335V5.50016" stroke="white" stroke-width="2" stroke-linecap="round" stroke-linejoin="round"/>
<path d="M2.75 9.1665H19.25" stroke="white" stroke-width="2" stroke-linecap="round" stroke-linejoin="round"/>
<path d="M15.5833 15.5835L20.1667 20.1668" stroke="white" stroke-width="2" stroke-linecap="round" stroke-linejoin="round"/>
<path d="M15.5833 20.1668L20.1667 15.5835" stroke="white" stroke-width="2" stroke-linecap="round" stroke-linejoin="round"/>
</svg>
