<svg width="70" height="69" viewBox="0 0 70 69" fill="none" xmlns="http://www.w3.org/2000/svg">
<g filter="url(#filter0_d_149_378)">
<path d="M35 18.5C41.2043 18.5 46 22.8746 46 28C46 33.1254 41.2043 37.5 35 37.5V38.0107L34.999 37.5C33.8975 37.5016 32.7997 37.3591 31.7354 37.0752L31.3662 36.9766L31.0254 37.1494C30.3319 37.5015 28.7489 38.1849 26.1104 38.7109C26.506 37.5644 26.831 36.2432 26.9502 34.9951L26.9951 34.5264L26.6631 34.1934C24.989 32.5151 24 30.3473 24 28C24 22.8746 28.7957 18.5 35 18.5Z" stroke="#374151" stroke-width="2"/>
</g>
<defs>
<filter id="filter0_d_149_378" x="0.200001" y="-0.799999" width="69.6" height="69.6" filterUnits="userSpaceOnUse" color-interpolation-filters="sRGB">
<feFlood flood-opacity="0" result="BackgroundImageFix"/>
<feColorMatrix in="SourceAlpha" type="matrix" values="0 0 0 0 0 0 0 0 0 0 0 0 0 0 0 0 0 0 127 0" result="hardAlpha"/>
<feOffset dy="6"/>
<feGaussianBlur stdDeviation="11.4"/>
<feComposite in2="hardAlpha" operator="out"/>
<feColorMatrix type="matrix" values="0 0 0 0 0 0 0 0 0 0 0 0 0 0 0 0 0 0 0.06 0"/>
<feBlend mode="normal" in2="BackgroundImageFix" result="effect1_dropShadow_149_378"/>
<feBlend mode="normal" in="SourceGraphic" in2="effect1_dropShadow_149_378" result="shape"/>
</filter>
</defs>
</svg>
