<svg width="25" height="25" viewBox="0 0 25 25" fill="none" xmlns="http://www.w3.org/2000/svg">
<path d="M20.92 5.07996C20.4183 4.57653 19.8222 4.17709 19.1658 3.90455C18.5094 3.632 17.8057 3.4917 17.095 3.4917C16.3842 3.4917 15.6805 3.632 15.0241 3.90455C14.3678 4.17709 13.7716 4.57653 13.27 5.07996L12.5 5.85996L11.73 5.07996C11.2283 4.57653 10.6322 4.17709 9.97578 3.90455C9.31941 3.632 8.61568 3.4917 7.90496 3.4917C7.19425 3.4917 6.49052 3.632 5.83414 3.90455C5.17776 4.17709 4.58164 4.57653 4.07996 5.07996C1.95996 7.19996 1.82996 10.78 4.49996 13.5L12.5 21.5L20.5 13.5C23.17 10.78 23.04 7.19996 20.92 5.07996Z" stroke="black" stroke-width="2" stroke-linecap="round" stroke-linejoin="round"/>
<path d="M12.4999 5.86011L9.36995 9.00011C8.97424 9.39905 8.7522 9.9382 8.7522 10.5001C8.7522 11.062 8.97424 11.6012 9.36995 12.0001C9.76889 12.3958 10.308 12.6179 10.8699 12.6179C11.4319 12.6179 11.971 12.3958 12.3699 12.0001L14.6299 9.79011C15.1916 9.23439 15.9498 8.92269 16.7399 8.92269C17.5301 8.92269 18.2883 9.23439 18.8499 9.79011L21.2499 12.1901" stroke="black" stroke-width="2" stroke-linecap="round" stroke-linejoin="round"/>
<path d="M18.5 15.5L16.5 13.5" stroke="black" stroke-width="2" stroke-linecap="round" stroke-linejoin="round"/>
<path d="M15.5 18.5L13.5 16.5" stroke="black" stroke-width="2" stroke-linecap="round" stroke-linejoin="round"/>
</svg>
