<svg width="291" height="291" viewBox="0 0 291 291" fill="none" xmlns="http://www.w3.org/2000/svg">
<path d="M133.581 34.12C134.101 31.3385 135.577 28.8264 137.753 27.0186C139.93 25.2108 142.67 24.2212 145.5 24.2212C148.33 24.2212 151.07 25.2108 153.247 27.0186C155.423 28.8264 156.899 31.3385 157.419 34.12L170.162 101.511C171.067 106.302 173.396 110.709 176.843 114.157C180.291 117.605 184.698 119.933 189.49 120.838L256.88 133.581C259.662 134.101 262.174 135.577 263.982 137.754C265.789 139.93 266.779 142.671 266.779 145.5C266.779 148.33 265.789 151.07 263.982 153.247C262.174 155.424 259.662 156.9 256.88 157.419L189.49 170.162C184.698 171.068 180.291 173.396 176.843 176.844C173.396 180.292 171.067 184.699 170.162 189.49L157.419 256.88C156.899 259.662 155.423 262.174 153.247 263.982C151.07 265.79 148.33 266.779 145.5 266.779C142.67 266.779 139.93 265.79 137.753 263.982C135.577 262.174 134.101 259.662 133.581 256.88L120.838 189.49C119.933 184.699 117.604 180.292 114.157 176.844C110.709 173.396 106.302 171.068 101.511 170.162L34.1197 157.419C31.3383 156.9 28.8262 155.424 27.0184 153.247C25.2106 151.07 24.221 148.33 24.221 145.5C24.221 142.671 25.2106 139.93 27.0184 137.754C28.8262 135.577 31.3383 134.101 34.1197 133.581L101.511 120.838C106.302 119.933 110.709 117.605 114.157 114.157C117.604 110.709 119.933 106.302 120.838 101.511L133.581 34.12Z" fill="#30BDFE"/>
<path d="M242.5 24.25V72.75Z" fill="#1488BD"/>
<path d="M242.5 24.25V72.75" stroke="#1488BD" stroke-width="9" stroke-linecap="round" stroke-linejoin="round"/>
<path d="M266.75 48.5H218.25Z" fill="#1488BD"/>
<path d="M266.75 48.5H218.25" stroke="#1488BD" stroke-width="9" stroke-linecap="round" stroke-linejoin="round"/>
<path d="M48.5 266.75C61.8929 266.75 72.75 255.893 72.75 242.5C72.75 229.107 61.8929 218.25 48.5 218.25C35.1071 218.25 24.25 229.107 24.25 242.5C24.25 255.893 35.1071 266.75 48.5 266.75Z" fill="#1488BD" stroke="#1488BD" stroke-width="2" stroke-linecap="round" stroke-linejoin="round"/>
</svg>
