<svg width="728" height="667" viewBox="0 0 728 667" fill="none" xmlns="http://www.w3.org/2000/svg">
<path d="M11.5064 1.20019C60.6598 1.20019 100.506 41.0469 100.506 90.2002L100.506 532V532C44.9983 532 9.28252e-06 487.002 1.17089e-05 431.494L3.05176e-05 1.20019L11.5064 1.20019Z" fill="#30BDFE"/>
<path d="M100.506 447.198H233.083C277.818 447.198 314.083 483.463 314.083 528.198V532H100.506V447.198Z" fill="#1488BD"/>
<circle cx="477.147" cy="104.432" r="104.432" fill="#1488BD"/>
<circle cx="477.702" cy="266.463" r="104.432" fill="#1488BD"/>
<path d="M354.15 532C413.995 532 462.509 483.486 462.509 423.642L462.509 1.2002V1.2002C402.664 1.2002 354.15 49.7139 354.15 109.559L354.15 532V532Z" fill="#30BDFE"/>
<path d="M570.581 410.12C571.101 407.339 572.577 404.826 574.753 403.019C576.93 401.211 579.67 400.221 582.5 400.221C585.33 400.221 588.07 401.211 590.247 403.019C592.423 404.826 593.899 407.339 594.419 410.12L607.162 477.511C608.067 482.302 610.396 486.709 613.843 490.157C617.291 493.605 621.698 495.933 626.49 496.838L693.88 509.581C696.662 510.101 699.174 511.577 700.982 513.754C702.789 515.93 703.779 518.671 703.779 521.5C703.779 524.33 702.789 527.07 700.982 529.247C699.174 531.424 696.662 532.9 693.88 533.419L626.49 546.162C621.698 547.068 617.291 549.396 613.843 552.844C610.396 556.292 608.067 560.699 607.162 565.49L594.419 632.88C593.899 635.662 592.423 638.174 590.247 639.982C588.07 641.79 585.33 642.779 582.5 642.779C579.67 642.779 576.93 641.79 574.753 639.982C572.577 638.174 571.101 635.662 570.581 632.88L557.838 565.49C556.933 560.699 554.604 556.292 551.157 552.844C547.709 549.396 543.302 547.068 538.511 546.162L471.12 533.419C468.338 532.9 465.826 531.424 464.018 529.247C462.211 527.07 461.221 524.33 461.221 521.5C461.221 518.671 462.211 515.93 464.018 513.754C465.826 511.577 468.338 510.101 471.12 509.581L538.511 496.838C543.302 495.933 547.709 493.605 551.157 490.157C554.604 486.709 556.933 482.302 557.838 477.511L570.581 410.12Z" fill="#30BDFE"/>
<path d="M679.5 400.25V448.75Z" fill="#1488BD"/>
<path d="M679.5 400.25V448.75" stroke="#1488BD" stroke-width="9" stroke-linecap="round" stroke-linejoin="round"/>
<path d="M703.75 424.5H655.25Z" fill="#1488BD"/>
<path d="M703.75 424.5H655.25" stroke="#1488BD" stroke-width="9" stroke-linecap="round" stroke-linejoin="round"/>
<path d="M485.5 642.75C498.893 642.75 509.75 631.893 509.75 618.5C509.75 605.107 498.893 594.25 485.5 594.25C472.107 594.25 461.25 605.107 461.25 618.5C461.25 631.893 472.107 642.75 485.5 642.75Z" fill="#1488BD" stroke="#1488BD" stroke-width="2" stroke-linecap="round" stroke-linejoin="round"/>
</svg>
