<svg width="583" height="532" viewBox="0 0 583 532" fill="none" xmlns="http://www.w3.org/2000/svg">
<path d="M11.5063 1.20019C60.6597 1.20019 100.506 41.0469 100.506 90.2002L100.506 532V532C44.9982 532 -0.000112788 487.002 -0.000110361 431.494L-9.15527e-05 1.20019L11.5063 1.20019Z" fill="#30BDFE"/>
<path d="M100.506 447.198H233.083C277.818 447.198 314.083 483.463 314.083 528.198V532H100.506V447.198Z" fill="#1488BD"/>
<circle cx="477.147" cy="104.432" r="104.432" fill="#1488BD"/>
<circle cx="477.702" cy="266.463" r="104.432" fill="#1488BD"/>
<path d="M354.15 532C413.995 532 462.509 483.486 462.509 423.642L462.509 1.2002V1.2002C402.664 1.2002 354.15 49.7139 354.15 109.559L354.15 532V532Z" fill="#30BDFE"/>
</svg>
