<svg width="149" height="50" viewBox="0 0 149 50" fill="none" xmlns="http://www.w3.org/2000/svg">
<path d="M0 0.112803C5.24441 0.112803 9.49583 4.36423 9.49583 9.60864L9.49583 50V50C4.25143 50 -2.00531e-06 45.7486 -1.77486e-06 40.5042L0 0.112803V0.112803Z" fill="url(#paint0_linear_87_2574)"/>
<path d="M9.49583 42.0299H21.7043C26.1061 42.0299 29.6745 45.5982 29.6745 50V50H9.49583V42.0299Z" fill="url(#paint1_linear_87_2574)"/>
<ellipse cx="45.0808" cy="9.81508" rx="9.86677" ry="9.81508" fill="url(#paint2_linear_87_2574)"/>
<ellipse cx="45.1332" cy="25.0435" rx="9.86677" ry="9.81508" fill="url(#paint3_linear_87_2574)"/>
<path d="M33.46 50C39.1142 50 43.6977 45.4164 43.6977 39.7623L43.6977 0.112801V0.112801C38.0436 0.112801 33.46 4.69637 33.46 10.3505L33.46 50V50Z" fill="url(#paint4_linear_87_2574)"/>
<path d="M74.6 32.5V18.1H76.38V30.81H83.06V32.5H74.6ZM86.9516 32.5L91.7716 18.1H94.2516L99.0716 32.5H97.2216L92.7116 19.14H93.2716L88.8016 32.5H86.9516ZM89.2716 29.13V27.46H96.7516V29.13H89.2716ZM104.062 32.5V18.1H109.672C110.532 18.1 111.265 18.2767 111.872 18.63C112.485 18.9833 112.952 19.45 113.272 20.03C113.598 20.6033 113.762 21.2233 113.762 21.89C113.762 22.67 113.562 23.3533 113.162 23.94C112.762 24.5267 112.222 24.93 111.542 25.15L111.522 24.66C112.448 24.9067 113.168 25.36 113.682 26.02C114.195 26.68 114.452 27.4667 114.452 28.38C114.452 29.22 114.278 29.9467 113.932 30.56C113.592 31.1733 113.098 31.65 112.452 31.99C111.812 32.33 111.052 32.5 110.172 32.5H104.062ZM105.862 30.8H109.832C110.365 30.8 110.842 30.7033 111.262 30.51C111.682 30.31 112.012 30.03 112.252 29.67C112.498 29.31 112.622 28.8767 112.622 28.37C112.622 27.8833 112.512 27.4467 112.292 27.06C112.078 26.6733 111.775 26.3667 111.382 26.14C110.995 25.9067 110.545 25.79 110.032 25.79H105.862V30.8ZM105.862 24.11H109.652C110.078 24.11 110.462 24.02 110.802 23.84C111.148 23.6533 111.422 23.3933 111.622 23.06C111.828 22.7267 111.932 22.3367 111.932 21.89C111.932 21.27 111.722 20.7633 111.302 20.37C110.882 19.9767 110.332 19.78 109.652 19.78H105.862V24.11ZM125.565 32.8C124.131 32.8 122.915 32.4833 121.915 31.85C120.915 31.2167 120.151 30.3367 119.625 29.21C119.105 28.0833 118.845 26.78 118.845 25.3C118.845 23.82 119.105 22.5167 119.625 21.39C120.151 20.2633 120.915 19.3833 121.915 18.75C122.915 18.1167 124.131 17.8 125.565 17.8C127.005 17.8 128.225 18.1167 129.225 18.75C130.225 19.3833 130.985 20.2633 131.505 21.39C132.025 22.5167 132.285 23.82 132.285 25.3C132.285 26.78 132.025 28.0833 131.505 29.21C130.985 30.3367 130.225 31.2167 129.225 31.85C128.225 32.4833 127.005 32.8 125.565 32.8ZM125.565 31.1C126.638 31.1067 127.531 30.8667 128.245 30.38C128.965 29.8867 129.501 29.2033 129.855 28.33C130.215 27.4567 130.395 26.4467 130.395 25.3C130.395 24.1467 130.215 23.1367 129.855 22.27C129.501 21.4033 128.965 20.7267 128.245 20.24C127.531 19.7533 126.638 19.5067 125.565 19.5C124.491 19.4933 123.598 19.7333 122.885 20.22C122.178 20.7067 121.645 21.3867 121.285 22.26C120.925 23.1333 120.741 24.1467 120.735 25.3C120.728 26.4467 120.905 27.4533 121.265 28.32C121.625 29.1867 122.161 29.8667 122.875 30.36C123.595 30.8467 124.491 31.0933 125.565 31.1ZM137.493 32.5V18.1H143.183C143.323 18.1 143.49 18.1067 143.683 18.12C143.876 18.1267 144.063 18.1467 144.243 18.18C145.023 18.3 145.676 18.5667 146.203 18.98C146.736 19.3933 147.136 19.9167 147.403 20.55C147.67 21.1767 147.803 21.8733 147.803 22.64C147.803 23.7533 147.513 24.72 146.933 25.54C146.353 26.3533 145.503 26.8633 144.383 27.07L143.703 27.18H139.273V32.5H137.493ZM146.063 32.5L143.223 26.64L144.983 26.1L148.103 32.5H146.063ZM139.273 25.49H143.123C143.25 25.49 143.393 25.4833 143.553 25.47C143.72 25.4567 143.876 25.4333 144.023 25.4C144.483 25.2933 144.856 25.1 145.143 24.82C145.436 24.5333 145.65 24.2 145.783 23.82C145.916 23.4333 145.983 23.04 145.983 22.64C145.983 22.24 145.916 21.85 145.783 21.47C145.65 21.0833 145.436 20.7467 145.143 20.46C144.856 20.1733 144.483 19.98 144.023 19.88C143.876 19.84 143.72 19.8167 143.553 19.81C143.393 19.7967 143.25 19.79 143.123 19.79H139.273V25.49Z" fill="#366D87"/>
<defs>
<linearGradient id="paint0_linear_87_2574" x1="4.74792" y1="0.112803" x2="4.74792" y2="50" gradientUnits="userSpaceOnUse">
<stop stop-color="#94DDFF"/>
<stop offset="1" stop-color="#1791CA"/>
</linearGradient>
<linearGradient id="paint1_linear_87_2574" x1="29.6745" y1="46.0149" x2="9.49583" y2="46.0149" gradientUnits="userSpaceOnUse">
<stop stop-color="#3CB5ED"/>
<stop offset="1" stop-color="#1C82B1"/>
</linearGradient>
<linearGradient id="paint2_linear_87_2574" x1="54.9475" y1="9.81508" x2="35.214" y2="9.81508" gradientUnits="userSpaceOnUse">
<stop stop-color="#30BDFE"/>
<stop offset="1" stop-color="#1D7198"/>
</linearGradient>
<linearGradient id="paint3_linear_87_2574" x1="55" y1="25.0435" x2="35.2665" y2="25.0435" gradientUnits="userSpaceOnUse">
<stop stop-color="#30BDFE"/>
<stop offset="1" stop-color="#1D7198"/>
</linearGradient>
<linearGradient id="paint4_linear_87_2574" x1="38.5789" y1="50" x2="38.5789" y2="0.112801" gradientUnits="userSpaceOnUse">
<stop stop-color="#C7EDFF"/>
<stop offset="0.432692" stop-color="#30BDFE"/>
</linearGradient>
</defs>
</svg>
