<svg width="583" height="532" viewBox="0 0 583 532" fill="none" xmlns="http://www.w3.org/2000/svg">
<path d="M11.5064 1.20022C60.6598 1.20022 100.506 41.0469 100.506 90.2002L100.506 532C44.9983 532 9.28252e-06 487.002 1.17089e-05 431.494L3.05176e-05 1.20022L11.5064 1.20022Z" fill="url(#paint0_linear_39_122)"/>
<path d="M100.506 447.198H233.083C277.818 447.198 314.083 483.463 314.083 528.198V532H100.506V447.198Z" fill="url(#paint1_linear_39_122)"/>
<circle cx="477.147" cy="104.432" r="104.432" fill="url(#paint2_linear_39_122)"/>
<circle cx="477.702" cy="266.463" r="104.432" fill="url(#paint3_linear_39_122)"/>
<path d="M354.15 532C413.995 532 462.509 483.486 462.509 423.642L462.509 1.2002C402.664 1.2002 354.15 49.7139 354.15 109.559L354.15 532Z" fill="url(#paint4_linear_39_122)"/>
<defs>
<linearGradient id="paint0_linear_39_122" x1="50.2533" y1="1.20022" x2="50.2532" y2="532" gradientUnits="userSpaceOnUse">
<stop stop-color="#94DDFF"/>
<stop offset="1" stop-color="#1791CA"/>
</linearGradient>
<linearGradient id="paint1_linear_39_122" x1="314.083" y1="489.599" x2="100.506" y2="489.599" gradientUnits="userSpaceOnUse">
<stop stop-color="#3CB5ED"/>
<stop offset="1" stop-color="#1C82B1"/>
</linearGradient>
<linearGradient id="paint2_linear_39_122" x1="581.579" y1="104.432" x2="372.714" y2="104.432" gradientUnits="userSpaceOnUse">
<stop stop-color="#30BDFE"/>
<stop offset="1" stop-color="#1D7198"/>
</linearGradient>
<linearGradient id="paint3_linear_39_122" x1="582.135" y1="266.463" x2="373.27" y2="266.463" gradientUnits="userSpaceOnUse">
<stop stop-color="#30BDFE"/>
<stop offset="1" stop-color="#1D7198"/>
</linearGradient>
<linearGradient id="paint4_linear_39_122" x1="408.329" y1="532" x2="408.329" y2="1.2002" gradientUnits="userSpaceOnUse">
<stop stop-color="#C7EDFF"/>
<stop offset="0.432692" stop-color="#30BDFE"/>
</linearGradient>
</defs>
</svg>
