<svg width="583" height="633" viewBox="0 0 583 633" fill="none" xmlns="http://www.w3.org/2000/svg">
<path d="M11.5064 1.20022C60.6598 1.20022 100.506 41.0469 100.506 90.2002L100.506 532V532C44.9983 532 9.28252e-06 487.002 1.17089e-05 431.494L3.05176e-05 1.20022L11.5064 1.20022Z" fill="url(#paint0_linear_59_2426)"/>
<path d="M100.506 447.198H233.083C277.818 447.198 314.083 483.463 314.083 528.198V532H100.506V447.198Z" fill="url(#paint1_linear_59_2426)"/>
<circle cx="477.147" cy="104.432" r="104.432" fill="url(#paint2_linear_59_2426)"/>
<circle cx="477.702" cy="266.463" r="104.432" fill="url(#paint3_linear_59_2426)"/>
<path d="M354.15 532C413.995 532 462.509 483.486 462.509 423.642L462.509 1.2002V1.2002C402.664 1.2002 354.15 49.7139 354.15 109.559L354.15 532V532Z" fill="url(#paint4_linear_59_2426)"/>
<path d="M174.12 614V567.92H179.816V608.592H201.192V614H174.12ZM213.645 614L229.069 567.92H237.005L252.429 614H246.509L232.077 571.248H233.869L219.565 614H213.645ZM221.069 603.216V597.872H245.005V603.216H221.069ZM268.397 614V567.92H286.349C289.101 567.92 291.448 568.485 293.389 569.616C295.352 570.747 296.845 572.24 297.869 574.096C298.915 575.931 299.437 577.915 299.437 580.048C299.437 582.544 298.797 584.731 297.517 586.608C296.237 588.485 294.509 589.776 292.333 590.48L292.269 588.912C295.235 589.701 297.539 591.152 299.181 593.264C300.824 595.376 301.645 597.893 301.645 600.816C301.645 603.504 301.091 605.829 299.981 607.792C298.893 609.755 297.315 611.28 295.245 612.368C293.197 613.456 290.765 614 287.949 614H268.397ZM274.157 608.56H286.861C288.568 608.56 290.093 608.251 291.437 607.632C292.781 606.992 293.837 606.096 294.605 604.944C295.395 603.792 295.789 602.405 295.789 600.784C295.789 599.227 295.437 597.829 294.733 596.592C294.051 595.355 293.08 594.373 291.821 593.648C290.584 592.901 289.144 592.528 287.501 592.528H274.157V608.56ZM274.157 587.152H286.285C287.651 587.152 288.877 586.864 289.965 586.288C291.075 585.691 291.949 584.859 292.589 583.792C293.251 582.725 293.581 581.477 293.581 580.048C293.581 578.064 292.909 576.443 291.565 575.184C290.221 573.925 288.461 573.296 286.285 573.296H274.157V587.152ZM337.207 614.96C332.62 614.96 328.727 613.947 325.527 611.92C322.327 609.893 319.884 607.077 318.199 603.472C316.535 599.867 315.703 595.696 315.703 590.96C315.703 586.224 316.535 582.053 318.199 578.448C319.884 574.843 322.327 572.027 325.527 570C328.727 567.973 332.62 566.96 337.207 566.96C341.815 566.96 345.719 567.973 348.919 570C352.119 572.027 354.551 574.843 356.215 578.448C357.879 582.053 358.711 586.224 358.711 590.96C358.711 595.696 357.879 599.867 356.215 603.472C354.551 607.077 352.119 609.893 348.919 611.92C345.719 613.947 341.815 614.96 337.207 614.96ZM337.207 609.52C340.641 609.541 343.5 608.773 345.783 607.216C348.087 605.637 349.804 603.451 350.935 600.656C352.087 597.861 352.663 594.629 352.663 590.96C352.663 587.269 352.087 584.037 350.935 581.264C349.804 578.491 348.087 576.325 345.783 574.768C343.5 573.211 340.641 572.421 337.207 572.4C333.772 572.379 330.913 573.147 328.631 574.704C326.369 576.261 324.663 578.437 323.511 581.232C322.359 584.027 321.772 587.269 321.751 590.96C321.729 594.629 322.295 597.851 323.447 600.624C324.599 603.397 326.316 605.573 328.599 607.152C330.903 608.709 333.772 609.499 337.207 609.52ZM375.377 614V567.92H393.585C394.033 567.92 394.567 567.941 395.185 567.984C395.804 568.005 396.401 568.069 396.977 568.176C399.473 568.56 401.564 569.413 403.249 570.736C404.956 572.059 406.236 573.733 407.089 575.76C407.943 577.765 408.369 579.995 408.369 582.448C408.369 586.011 407.441 589.104 405.585 591.728C403.729 594.331 401.009 595.963 397.425 596.624L395.249 596.976H381.073V614H375.377ZM402.801 614L393.713 595.248L399.345 593.52L409.329 614H402.801ZM381.073 591.568H393.393C393.799 591.568 394.257 591.547 394.769 591.504C395.303 591.461 395.804 591.387 396.273 591.28C397.745 590.939 398.94 590.32 399.857 589.424C400.796 588.507 401.479 587.44 401.905 586.224C402.332 584.987 402.545 583.728 402.545 582.448C402.545 581.168 402.332 579.92 401.905 578.704C401.479 577.467 400.796 576.389 399.857 575.472C398.94 574.555 397.745 573.936 396.273 573.616C395.804 573.488 395.303 573.413 394.769 573.392C394.257 573.349 393.799 573.328 393.393 573.328H381.073V591.568Z" fill="#366D87"/>
<defs>
<linearGradient id="paint0_linear_59_2426" x1="50.2533" y1="1.20022" x2="50.2532" y2="532" gradientUnits="userSpaceOnUse">
<stop stop-color="#94DDFF"/>
<stop offset="1" stop-color="#1791CA"/>
</linearGradient>
<linearGradient id="paint1_linear_59_2426" x1="314.083" y1="489.599" x2="100.506" y2="489.599" gradientUnits="userSpaceOnUse">
<stop stop-color="#3CB5ED"/>
<stop offset="1" stop-color="#1C82B1"/>
</linearGradient>
<linearGradient id="paint2_linear_59_2426" x1="581.579" y1="104.432" x2="372.714" y2="104.432" gradientUnits="userSpaceOnUse">
<stop stop-color="#30BDFE"/>
<stop offset="1" stop-color="#1D7198"/>
</linearGradient>
<linearGradient id="paint3_linear_59_2426" x1="582.135" y1="266.463" x2="373.27" y2="266.463" gradientUnits="userSpaceOnUse">
<stop stop-color="#30BDFE"/>
<stop offset="1" stop-color="#1D7198"/>
</linearGradient>
<linearGradient id="paint4_linear_59_2426" x1="408.329" y1="532" x2="408.329" y2="1.2002" gradientUnits="userSpaceOnUse">
<stop stop-color="#C7EDFF"/>
<stop offset="0.432692" stop-color="#30BDFE"/>
</linearGradient>
</defs>
</svg>
